/* XPM */
static char * coletab_xpm[] = {
"35 35 12 1",
" 	c #1E1E1E",
".	c #2C2C2C",
"+	c #8E8E8E",
"@	c #C6C6C6",
"#	c #FFFFFF",
"$	c #D4D4D4",
"%	c #727272",
"&	c #3A3A3A",
"*	c #E3E3E3",
"=	c #D5D5D5",
"-	c #C7C7C7",
";	c #8F8F8F",
"                                   ",
"                                   ",
"                                   ",
"                                   ",
"                                   ",
"                                   ",
"                                   ",
"                                   ",
"                                   ",
"                                   ",
"                                   ",
"             .+@##$%               ",
"            &*######*&             ",
"            *########*.            ",
"           %##########+            ",
"           =##########-            ",
"           ############            ",
"           ############            ",
"           -##########$            ",
"           +##########%            ",
"           .*########*             ",
"            &*######*&             ",
"              %=##-;.              ",
"                                   ",
"                                   ",
"                                   ",
"                                   ",
"                                   ",
"                                   ",
"                                   ",
"                                   ",
"                                   ",
"                                   ",
"                                   ",
"                                   "};
