/* XPM */
static char * exit_xpm[] = {
"40 41 697 2",
"  	c #1E1E1E",
". 	c #061818",
"+ 	c #041719",
"@ 	c #061819",
"# 	c #051819",
"$ 	c #062426",
"% 	c #042528",
"& 	c #052528",
"* 	c #072628",
"= 	c #072123",
"- 	c #051D1F",
"; 	c #04191B",
"> 	c #063135",
", 	c #053336",
"' 	c #073437",
") 	c #063437",
"! 	c #043134",
"~ 	c #052E31",
"{ 	c #042A2D",
"] 	c #032629",
"^ 	c #032123",
"/ 	c #021A1C",
"( 	c #083538",
"_ 	c #0C3B3E",
": 	c #0E4043",
"< 	c #0B4044",
"[ 	c #084246",
"} 	c #094448",
"| 	c #074448",
"1 	c #044146",
"2 	c #043F44",
"3 	c #053D42",
"4 	c #04393D",
"5 	c #033337",
"6 	c #022C30",
"7 	c #02272A",
"8 	c #022023",
"9 	c #01181B",
"0 	c #093639",
"a 	c #053B40",
"b 	c #074348",
"c 	c #0E4A4F",
"d 	c #115256",
"e 	c #0C5359",
"f 	c #0B575F",
"g 	c #0B5D62",
"h 	c #075C62",
"i 	c #06575E",
"j 	c #075258",
"k 	c #074F55",
"l 	c #05494F",
"m 	c #034247",
"n 	c #033B3F",
"o 	c #043438",
"p 	c #022D30",
"q 	c #012427",
"r 	c #011C1F",
"s 	c #153738",
"t 	c #103D40",
"u 	c #0A4347",
"v 	c #084A50",
"w 	c #0B555B",
"x 	c #0E6268",
"y 	c #0F7076",
"z 	c #0B757E",
"A 	c #0C7D86",
"B 	c #0F828B",
"C 	c #0F828A",
"D 	c #0B7D86",
"E 	c #0D6E76",
"F 	c #0B6268",
"G 	c #06545B",
"H 	c #034A50",
"I 	c #024146",
"J 	c #01393E",
"K 	c #013034",
"L 	c #021E21",
"M 	c #1C3D3E",
"N 	c #1B4546",
"O 	c #144A4E",
"P 	c #0C545A",
"Q 	c #07646B",
"R 	c #0D7780",
"S 	c #118890",
"T 	c #0B959F",
"U 	c #0B9FA9",
"V 	c #0AA5B0",
"W 	c #0CAAB6",
"X 	c #0CA5B0",
"Y 	c #0C9FA9",
"Z 	c #0D959F",
"` 	c #09878F",
" .	c #057780",
"..	c #03646B",
"+.	c #02535A",
"@.	c #01464D",
"#.	c #023D42",
"$.	c #023438",
"%.	c #02292C",
"&.	c #021F21",
"*.	c #193C3C",
"=.	c #194547",
"-.	c #164D50",
";.	c #125F64",
">.	c #0C717A",
",.	c #078690",
"'.	c #089DA7",
").	c #0AADB8",
"!.	c #0CB6C3",
"~.	c #0CC0CB",
"{.	c #0AC5D3",
"].	c #07C8D6",
"^.	c #08C8D6",
"/.	c #09B6C3",
"(.	c #06ADB8",
"_.	c #059CA7",
":.	c #038690",
"<.	c #02717A",
"[.	c #025C62",
"}.	c #02494F",
"|.	c #033F44",
"1.	c #03292C",
"2.	c #031E20",
"3.	c #113638",
"4.	c #0F4245",
"5.	c #114C50",
"6.	c #0D7A81",
"7.	c #0B929D",
"8.	c #08A9B4",
"9.	c #04BBC7",
"0.	c #06D1DF",
"a.	c #06D5E5",
"b.	c #05D9E8",
"c.	c #04DBEA",
"d.	c #04D9E8",
"e.	c #05D5E4",
"f.	c #04C8D6",
"g.	c #04A9B4",
"h.	c #03929D",
"i.	c #037881",
"j.	c #035C62",
"k.	c #03494F",
"l.	c #023E43",
"m.	c #033235",
"n.	c #032528",
"o.	c #041B1D",
"p.	c #063B3F",
"q.	c #09484E",
"r.	c #107A82",
"s.	c #0898A3",
"t.	c #08AFBC",
"u.	c #06C2D0",
"v.	c #05D1DF",
"w.	c #03DFEF",
"x.	c #03E2F2",
"y.	c #03E4F3",
"z.	c #03E5F5",
"A.	c #03DFEE",
"B.	c #03D9E8",
"C.	c #03D1DF",
"D.	c #03C2D0",
"E.	c #04AFBC",
"F.	c #0498A3",
"G.	c #057981",
"H.	c #065D62",
"I.	c #04474E",
"J.	c #033A3F",
"K.	c #062F32",
"L.	c #05373B",
"M.	c #044247",
"N.	c #06565C",
"O.	c #0D757C",
"P.	c #10939E",
"Q.	c #0CB1BC",
"R.	c #04C3D2",
"S.	c #03D4E2",
"T.	c #03DDED",
"U.	c #03E3F3",
"V.	c #03E7F7",
"W.	c #08E8F8",
"X.	c #10E9F8",
"Y.	c #16E9FA",
"Z.	c #16E9F9",
"`.	c #11E9F8",
" +	c #07E8F8",
".+	c #02E7F7",
"++	c #03C3D2",
"@+	c #03B0BC",
"#+	c #03939E",
"$+	c #06747B",
"%+	c #0A575D",
"&+	c #0A4448",
"*+	c #0A383B",
"=+	c #073033",
"-+	c #043D41",
";+	c #054A51",
">+	c #05656D",
",+	c #058992",
"'+	c #05AAB5",
")+	c #04C2D0",
"!+	c #04D4E2",
"~+	c #03DEEE",
"{+	c #05E8F8",
"]+	c #18EAFA",
"^+	c #31EBFB",
"/+	c #44EDFC",
"(+	c #4AEDFC",
"_+	c #46ECFC",
":+	c #32EBFB",
"<+	c #19EAFA",
"[+	c #05D4E2",
"}+	c #04AAB5",
"|+	c #0B666D",
"1+	c #0C4C51",
"2+	c #0A3E42",
"3+	c #0A373A",
"4+	c #0A454A",
"5+	c #0B585E",
"6+	c #087A82",
"7+	c #049EA8",
"8+	c #03BCC9",
"9+	c #03D1E0",
"0+	c #0EE8F8",
"a+	c #25EAFA",
"b+	c #45EDFC",
"c+	c #5FEFFD",
"d+	c #75F0FD",
"e+	c #80F1FD",
"f+	c #7AF0FD",
"g+	c #67EFFD",
"h+	c #4BECFC",
"i+	c #27EAFA",
"j+	c #0DE8F8",
"k+	c #04D1E0",
"l+	c #04BCC9",
"m+	c #069EA8",
"n+	c #077A82",
"o+	c #08585E",
"p+	c #0D383B",
"q+	c #093D40",
"r+	c #0C4B50",
"s+	c #0D636A",
"t+	c #0A8B95",
"u+	c #07AFBA",
"v+	c #07C9D8",
"w+	c #04DAE9",
"x+	c #23EAFB",
"y+	c #48EDFC",
"z+	c #6DF0FD",
"A+	c #8DF1FD",
"B+	c #9FF4FD",
"C+	c #AAF5FD",
"D+	c #A7F4FD",
"E+	c #93F3FD",
"F+	c #7CF0FD",
"G+	c #50ECFC",
"H+	c #29EAFB",
"I+	c #02E3F3",
"J+	c #02DAE9",
"K+	c #03C9D8",
"L+	c #098B95",
"M+	c #08636A",
"N+	c #0B4B50",
"O+	c #103F42",
"P+	c #093235",
"Q+	c #084045",
"R+	c #065359",
"S+	c #06727A",
"T+	c #0F97A2",
"U+	c #12B9C7",
"V+	c #06D2E1",
"W+	c #03E0EF",
"X+	c #03E8F7",
"Y+	c #42EDFC",
"Z+	c #6FF0FD",
"`+	c #92F1FD",
" @	c #ADF5FD",
".@	c #B9F6FD",
"+@	c #C2F7FD",
"@@	c #C3F7FD",
"#@	c #C0F7FD",
"$@	c #B4F5FD",
"%@	c #A1F3FD",
"&@	c #7DF1FD",
"*@	c #4FECFC",
"=@	c #1BEAFA",
"-@	c #02E8F7",
";@	c #02E0EE",
">@	c #03D2E1",
",@	c #06B8C6",
"'@	c #0997A2",
")@	c #09737A",
"!@	c #114346",
"~@	c #113537",
"{@	c #051A1B",
"]@	c #0C3638",
"^@	c #084347",
"/@	c #06575D",
"(@	c #097C84",
"_@	c #10A2AE",
":@	c #0CC1CD",
"<@	c #05D7E5",
"[@	c #2CEBFB",
"}@	c #59EDFD",
"|@	c #8AF1FD",
"1@	c #ABF4FD",
"2@	c #CAF8FD",
"3@	c #CDF8FD",
"4@	c #CEF8FD",
"5@	c #CCF8FD",
"6@	c #C7F8FD",
"7@	c #9AF2FD",
"8@	c #70F1FD",
"9@	c #38EBFB",
"0@	c #09C1CD",
"a@	c #0CA2AD",
"b@	c #0D7C84",
"c@	c #0D585E",
"d@	c #0B4448",
"e@	c #093538",
"f@	c #061C1E",
"g@	c #0B373A",
"h@	c #084449",
"i@	c #085A61",
"j@	c #0B8089",
"k@	c #10A9B4",
"l@	c #09C7D5",
"m@	c #03E5F4",
"n@	c #0EE9F9",
"o@	c #3BEDFC",
"p@	c #71F0FD",
"q@	c #9DF3FD",
"r@	c #BBF6FD",
"s@	c #D1F9FD",
"t@	c #D3F9FD",
"u@	c #D4F9FD",
"v@	c #D2F9FD",
"w@	c #CFF8FD",
"x@	c #C5F7FD",
"y@	c #B0F5FD",
"z@	c #86F2FD",
"A@	c #13E9F9",
"B@	c #04DAEA",
"C@	c #08C7D5",
"D@	c #0AA9B3",
"E@	c #0A5B61",
"F@	c #064448",
"G@	c #06363A",
"H@	c #072A2C",
"I@	c #08383B",
"J@	c #07474C",
"K@	c #085F65",
"L@	c #0B8790",
"M@	c #0EAEBA",
"N@	c #08CBD9",
"O@	c #04DCEC",
"P@	c #02E6F6",
"Q@	c #10EAF9",
"R@	c #3FEDFC",
"S@	c #A7F3FD",
"T@	c #D5F9FD",
"U@	c #D6F9FD",
"V@	c #B8F6FD",
"W@	c #93F2FD",
"X@	c #5EEEFC",
"Y@	c #1DEAFA",
"Z@	c #04CBD9",
"`@	c #07AEBA",
" #	c #088790",
".#	c #065E65",
"+#	c #05464B",
"@#	c #051C1E",
"##	c #06292C",
"$#	c #04464B",
"%#	c #0AAEBA",
"&#	c #41EDFC",
"*#	c #7DF2FD",
"=#	c #ABF3FD",
"-#	c #CBF8FD",
";#	c #98F3FD",
">#	c #62EEFC",
",#	c #20EAFA",
"'#	c #03DCEC",
")#	c #03CBD9",
"!#	c #03AEBA",
"~#	c #048690",
"{#	c #035E65",
"]#	c #06464B",
"^#	c #0E393C",
"/#	c #011A1D",
"(#	c #02282C",
"_#	c #03363A",
":#	c #03454A",
"<#	c #055C63",
"[#	c #06838C",
"}#	c #05AAB7",
"|#	c #04C9D7",
"1#	c #04DCEB",
"2#	c #02E5F4",
"3#	c #09E9F9",
"4#	c #38ECFC",
"5#	c #73F2FD",
"6#	c #A3F3FD",
"7#	c #C1F7FD",
"8#	c #D0F8FD",
"9#	c #C8F7FD",
"0#	c #B6F5FD",
"a#	c #92F3FD",
"b#	c #5DEEFC",
"c#	c #1CE9F9",
"d#	c #03DCEB",
"e#	c #03C9D7",
"f#	c #03AAB7",
"g#	c #03838C",
"h#	c #09383B",
"i#	c #00191C",
"j#	c #01272A",
"k#	c #03565D",
"l#	c #047C84",
"m#	c #04A2AE",
"n#	c #04C3D0",
"o#	c #04D8E6",
"p#	c #03E8F8",
"q#	c #26EBFB",
"r#	c #65EEFD",
"s#	c #95F2FD",
"t#	c #B7F5FD",
"u#	c #C8F8FD",
"v#	c #D1F8FD",
"w#	c #82F1FD",
"x#	c #50EDFB",
"y#	c #13E8F8",
"z#	c #03D8E6",
"A#	c #03C3D0",
"B#	c #02565D",
"C#	c #063539",
"D#	c #021719",
"E#	c #013235",
"F#	c #054146",
"G#	c #05545A",
"H#	c #05767E",
"I#	c #079AA6",
"J#	c #06BBC8",
"K#	c #04D3E3",
"L#	c #03E0F1",
"M#	c #02E8F8",
"N#	c #10EAFA",
"O#	c #45ECFC",
"P#	c #7AF2FD",
"Q#	c #A2F4FD",
"R#	c #BAF5FD",
"S#	c #C7F7FD",
"T#	c #C0F6FD",
"U#	c #B1F5FD",
"V#	c #94F3FD",
"W#	c #6BEEFC",
"X#	c #37EAFA",
"Y#	c #03D3E3",
"Z#	c #03767E",
"`#	c #02545A",
" $	c #034146",
".$	c #083437",
"+$	c #032124",
"@$	c #012E32",
"#$	c #023D41",
"$$	c #044D54",
"%$	c #09676D",
"&$	c #0D8E97",
"*$	c #0BB3BE",
"=$	c #06CCDB",
"-$	c #02E4F4",
";$	c #02E8F9",
">$	c #23EBFB",
",$	c #55EEFC",
"'$	c #80F2FD",
")$	c #B1F4FD",
"!$	c #BAF6FD",
"~$	c #AAF4FD",
"{$	c #96F3FD",
"]$	c #74EEFD",
"^$	c #4CEDFB",
"/$	c #1BE8F9",
"($	c #09B2BE",
"_$	c #098E97",
":$	c #05666D",
"<$	c #034D54",
"[$	c #033D42",
"}$	c #041F20",
"|$	c #032B2E",
"1$	c #01383C",
"2$	c #02464B",
"3$	c #075B61",
"4$	c #098088",
"5$	c #08A3AD",
"6$	c #07C0CE",
"7$	c #05D3E2",
"8$	c #02E7F6",
"9$	c #08E9F9",
"0$	c #52EEFC",
"a$	c #78EFFD",
"b$	c #8BF3FD",
"c$	c #9AF4FD",
"d$	c #85F2FD",
"e$	c #71EEFC",
"f$	c #4BEDFB",
"g$	c #28E9F9",
"h$	c #06E7F6",
"i$	c #0BC0CE",
"j$	c #0DA3AD",
"k$	c #0D8088",
"l$	c #095B61",
"m$	c #05393D",
"n$	c #071C1D",
"o$	c #072729",
"p$	c #053236",
"q$	c #024045",
"r$	c #034E55",
"s$	c #046A72",
"t$	c #048E97",
"u$	c #06AFBA",
"v$	c #05C7D5",
"w$	c #03D6E4",
"x$	c #03E1F0",
"y$	c #0EE8F9",
"z$	c #47EDFB",
"A$	c #5BEEFC",
"B$	c #57EDFB",
"C$	c #44ECFA",
"D$	c #23E8F9",
"E$	c #0EE7F6",
"F$	c #04D6E4",
"G$	c #09C8D5",
"H$	c #10B0BB",
"I$	c #108E97",
"J$	c #0B6B73",
"K$	c #054E55",
"L$	c #054045",
"M$	c #0A3437",
"N$	c #01454A",
"O$	c #025960",
"P$	c #0598A2",
"Q$	c #06B4C1",
"R$	c #05C8D6",
"S$	c #02E4F5",
"T$	c #06E8F8",
"U$	c #17E9F8",
"V$	c #2DE9F9",
"W$	c #37E9F9",
"X$	c #2DE9F8",
"Y$	c #17E8F8",
"Z$	c #06E4F5",
"`$	c #10B4C1",
" %	c #0E99A2",
".%	c #0F7981",
"+%	c #0C5A60",
"@%	c #07464B",
"#%	c #0A3A3E",
"$%	c #07282A",
"%%	c #053337",
"&%	c #023E42",
"*%	c #014B52",
"=%	c #026269",
"-%	c #058089",
";%	c #0AA0AB",
">%	c #0CB5C2",
",%	c #05D3E3",
"'%	c #03E2F1",
")%	c #06E6F5",
"!%	c #0EE6F5",
"~%	c #06E3F3",
"{%	c #10B5C2",
"]%	c #11A0AB",
"^%	c #0E8189",
"/%	c #10656A",
"(%	c #124D53",
"_%	c #104144",
":%	c #062022",
"<%	c #052B2E",
"[%	c #04363A",
"}%	c #024D54",
"|%	c #056269",
"1%	c #0D8189",
"2%	c #129AA4",
"3%	c #0EB0BC",
"4%	c #09C2CF",
"5%	c #04CEDB",
"6%	c #04D4E4",
"7%	c #03DDEC",
"8%	c #03D4E4",
"9%	c #0CB0BC",
"0%	c #109AA4",
"a%	c #12828A",
"b%	c #114F55",
"c%	c #134649",
"d%	c #133A3C",
"e%	c #072325",
"f%	c #072E32",
"g%	c #0B3B3F",
"h%	c #064348",
"i%	c #0F7B83",
"j%	c #098F99",
"k%	c #04A4AF",
"l%	c #03B4C0",
"m%	c #05BECA",
"n%	c #07C5D2",
"o%	c #06CBD9",
"p%	c #05CEDB",
"q%	c #04C5D2",
"r%	c #03BECA",
"s%	c #04B4C0",
"t%	c #06A4AF",
"u%	c #0A8F99",
"v%	c #127B83",
"w%	c #1D666D",
"x%	c #235457",
"y%	c #204B4D",
"z%	c #173F41",
"A%	c #071D1E",
"B%	c #0A3133",
"C%	c #093B3E",
"D%	c #024C54",
"E%	c #046D75",
"F%	c #01818B",
"G%	c #01909B",
"H%	c #049CA8",
"I%	c #05A6B2",
"J%	c #05AEBA",
"K%	c #06B3BF",
"L%	c #07B3BF",
"M%	c #04A6B2",
"N%	c #039CA8",
"O%	c #04909B",
"P%	c #06828B",
"Q%	c #086D75",
"R%	c #0A5C63",
"S%	c #154F54",
"T%	c #1E4A4B",
"U%	c #1C4142",
"V%	c #153536",
"W%	c #082628",
"X%	c #072F33",
"Y%	c #044F56",
"Z%	c #025C63",
"`%	c #026870",
" &	c #047881",
".&	c #088189",
"+&	c #068B96",
"@&	c #048089",
"#&	c #077981",
"$&	c #066870",
"%&	c #065C63",
"&&	c #074F56",
"*&	c #0C4044",
"=&	c #123B3E",
"-&	c #032325",
";&	c #072C2F",
">&	c #0D3639",
",&	c #03474D",
"'&	c #044E55",
")&	c #04575D",
"!&	c #065A61",
"~&	c #045F66",
"{&	c #036369",
"]&	c #035F66",
"^&	c #045A61",
"/&	c #08575D",
"(&	c #06484D",
"_&	c #074247",
":&	c #073B3F",
"<&	c #133335",
"[&	c #063438",
"}&	c #053A3F",
"|&	c #0E4246",
"1&	c #08464B",
"2&	c #07484D",
"3&	c #03494E",
"4&	c #02494E",
"5&	c #05474C",
"6&	c #0C4549",
"7&	c #0A4145",
"8&	c #0C3C40",
"9&	c #052F32",
"0&	c #042D30",
"a&	c #0D3336",
"b&	c #0D373A",
"c&	c #06373B",
"d&	c #07393D",
"e&	c #043A3E",
"f&	c #033A3E",
"g&	c #083A3D",
"h&	c #0C393C",
"i&	c #032426",
"j&	c #062D30",
"k&	c #032D30",
"l&	c #051718",
"m&	c #041A1C",
"n&	c #072122",
"                                                                                ",
"                                                                                ",
"                                    . + @ #                                     ",
"                                  $ % & * * $ = - ;                             ",
"                                  > , ' ) , ! ~ { ] ^ /                         ",
"                            ( _ : < [ } | 1 2 3 4 5 6 7 8 9                     ",
"                        0 a b c d e f g h i j k l m n o p q r                   ",
"                    s t u v w x y z A B C D z E F G H I J K 7 L                 ",
"                  M N O P Q R S T U V W W X Y Z `  ...+.@.#.$.%.&.              ",
"                *.=.-.;.>.,.'.).!.~.{.].^.{.~./.(._.:.<.[.}.|.$.1.2.            ",
"              3.4.5.;.6.7.8.9.].0.a.b.c.c.d.e.0.f.9.g.h.i.j.k.l.m.n.o.          ",
"              p.q.;.r.s.t.u.v.d.w.x.y.z.z.y.x.A.B.C.D.E.F.G.H.I.J.K.            ",
"            L.M.N.O.P.Q.R.S.T.U.V.W.X.Y.Z.`. +.+U.T.S.++@+#+$+%+&+*+            ",
"          =+-+;+>+,+'+)+!+~+z.{+]+^+/+(+(+_+:+<+ +z.~+[+)+}+,+|+1+2+            ",
"          3+4+5+6+7+8+9+T.z.0+a+b+c+d+e+e+f+g+h+i+j+z.T.k+l+m+n+o+4+p+          ",
"          q+r+s+t+u+v+w+U.{+x+y+z+A+B+C+C+D+E+F+G+H+ +I+J+K+u+L+M+N+O+          ",
"        P+Q+R+S+T+U+V+W+X+]+Y+Z+`+ @.@+@@@#@$@%@&@*@=@-@;@>@,@'@)@P !@~@        ",
"    {@  ]@^@/@(@_@:@<@U.{+[@}@|@1@#@2@3@4@5@6@.@7@8@9@ +U.<@0@a@b@c@d@e@        ",
"    f@  g@h@i@j@k@l@c.m@n@o@p@q@r@2@s@t@u@v@w@x@y@z@G+A@m@B@C@D@j@E@F@G@        ",
"    f@H@I@J@K@L@M@N@O@P@Q@R@F+S@+@4@t@T@U@T@v@2@V@W@X@Y@P@O@Z@`@ #.#+#I@        ",
"    @###L.$#.#L@%#N@O@P@Q@&#*#=#x@w@u@T@U@T@v@-#r@;#>#,#P@'#)#!#~#{#]#^#        ",
"    /#(#_#:#<#[#}#|#1#2#3#4#5#6#7#3@v@T@T@u@8#9#0#a#b#c#2#d#e#f#g#[.:#h#        ",
"    i#j#$.m k#l#m#n#o#U.p#q#r#s#t#u#w@v#v#8#5@7#1@w#x#y#U.z#A#m#l#B#m C#        ",
"    D#q E#F#G#H#I#J#K#L#M#N#O#P#Q#R#S#2@-#S#T#U#V#W#X# +L#Y#J#I#Z#`# $.$        ",
"      +$@$#$$$%$&$*$=$1#-$;$>$,$'$B+)$!$!$t#~${$]$^$/$-$1#=$($_$:$<$[$K.        ",
"      }$|$1$2$3$4$5$6$7$W+8$9$[@0$a$b$c$c$;#d$e$f$g$h$W+7$i$j$k$l$+#m$          ",
"      n$o$p$q$r$s$t$u$v$w$x$8$y$a+z$A$W#W#W#B$C$D$E$x$F$G$H$I$J$K$L$M$          ",
"            m$N$O$i.P$Q$R$F$W+S$T$U$V$X#X#W$X$Y$Z$W+F$^.`$ %.%+%@%#%            ",
"          $%%%&%*%=%-%;%>%G$,%d#'%I+)%E$E$!%~%'%d#,%G${%]%^%/%(%_%3.            ",
"          :%<%[% $}%|%1%2%3%4%5%6%d.7%~+~+7%B.8%5%4%9%0%a%/%b%c%d%              ",
"            e%f%g%h%}%M+i%j%k%l%m%n%o%p%p%Z@q%r%s%t%u%v%w%x%y%z%                ",
"            A%* B%C%m D%<#E%F%G%H%I%J%K%L%J%M%N%O%P%Q%R%S%T%U%V%                ",
"              f@W%X%L.l.2$Y%Z%`% &.&,.+&+&~#@&#&$&%&&&J@*&=&                    ",
"                o.-&;&>&p. $,&'&)&!&~&{&{&]&^&/&k (&_&:&]@                      ",
"                        <&[&}&|&h@1&2&3&4&5&1&6&7&8&( 9&                        ",
"                            0&a&b&c&d&e&f&g&h&g@~@                              ",
"                              i&      j&k&                                      ",
"                              l&m&    n&:%                                      ",
"                                                                                ",
"                                                                                ",
"                                                                                "};
