/* XPM */
static char * player2_xpm[] = {
"40 40 383 2",
"  	c None",
". 	c #1E1E1E",
"+ 	c #202322",
"@ 	c #010201",
"# 	c #000100",
"$ 	c #000201",
"% 	c #040404",
"& 	c #0E0E0E",
"* 	c #050706",
"= 	c #404241",
"- 	c #E8E8E8",
"; 	c #E3E3E3",
"> 	c #E2E2E2",
", 	c #E3E4E6",
"' 	c #E2E3E5",
") 	c #E5E6E8",
"! 	c #DEE0DF",
"~ 	c #E3E5E4",
"{ 	c #A9ABAA",
"] 	c #020403",
"^ 	c #020202",
"/ 	c #F1F1F1",
"( 	c #E5E5E5",
"_ 	c #F1F0F2",
": 	c #000306",
"< 	c #A2A2A2",
"[ 	c #E2E3E7",
"} 	c #A7B9C0",
"| 	c #020304",
"1 	c #E4E4E4",
"2 	c #A1BCC8",
"3 	c #3A3E44",
"4 	c #3A3C3B",
"5 	c #E1E3E2",
"6 	c #E4E5E5",
"7 	c #E5E7E6",
"8 	c #E3E2E4",
"9 	c #A2BCC8",
"0 	c #A6B7C5",
"a 	c #030403",
"b 	c #070909",
"c 	c #F2F3F3",
"d 	c #0D0D0D",
"e 	c #3A3A3A",
"f 	c #E3E4E4",
"g 	c #0A0C0B",
"h 	c #303230",
"i 	c #080807",
"j 	c #ECEDED",
"k 	c #E5E4E5",
"l 	c #9FB8C6",
"m 	c #A2BCCF",
"n 	c #010507",
"o 	c #040507",
"p 	c #010302",
"q 	c #2C2D2A",
"r 	c #242422",
"s 	c #E7E7E7",
"t 	c #EFF0F0",
"u 	c #2E2E2C",
"v 	c #31312F",
"w 	c #090A09",
"x 	c #E2E4E3",
"y 	c #A2B9C8",
"z 	c #A1BBCB",
"A 	c #090B11",
"B 	c #07080A",
"C 	c #0D0E0D",
"D 	c #2D2D2A",
"E 	c #535351",
"F 	c #C0C2C1",
"G 	c #30302E",
"H 	c #3F3F3D",
"I 	c #545452",
"J 	c #050605",
"K 	c #E5E5E3",
"L 	c #A3B9C9",
"M 	c #A1B9CA",
"N 	c #0F161C",
"O 	c #7A7A7A",
"P 	c #020302",
"Q 	c #515150",
"R 	c #50504F",
"S 	c #E9E9E9",
"T 	c #ECECEC",
"U 	c #30302F",
"V 	c #575757",
"W 	c #555555",
"X 	c #ACBDC8",
"Y 	c #A0BBCD",
"Z 	c #74848C",
"` 	c #CECECE",
" .	c #1B1B1B",
"..	c #222222",
"+.	c #575958",
"@.	c #1E201F",
"#.	c #E5E6E5",
"$.	c #8A979F",
"%.	c #9FBBCF",
"&.	c #A0B6C2",
"*.	c #1E1E1B",
"=.	c #DBDBDB",
"-.	c #E6E6E6",
";.	c #E0E2E1",
">.	c #171B21",
",.	c #A2BFD1",
"'.	c #9FBAC9",
").	c #010202",
"!.	c #E6E8E7",
"~.	c #E2E4E6",
"{.	c #DEE1E1",
"].	c #E0E2E3",
"^.	c #DEE2E3",
"/.	c #DBE0E0",
"(.	c #EDEDEF",
"_.	c #DFE2E2",
":.	c #E3E4E3",
"<.	c #E2E2E4",
"[.	c #A6A9AC",
"}.	c #9FBBCE",
"|.	c #A4BECF",
"1.	c #000105",
"2.	c #E6E7E7",
"3.	c #303231",
"4.	c #272827",
"5.	c #313130",
"6.	c #2E2F2E",
"7.	c #5C5C5C",
"8.	c #595A59",
"9.	c #555655",
"0.	c #565759",
"a.	c #0D0E10",
"b.	c #020305",
"c.	c #595C5B",
"d.	c #B8B9B9",
"e.	c #E3E3E4",
"f.	c #E6E8EA",
"g.	c #A3BBCB",
"h.	c #9FBBD0",
"i.	c #76848D",
"j.	c #CED0CF",
"k.	c #0B0D0C",
"l.	c #090A08",
"m.	c #565656",
"n.	c #585758",
"o.	c #2F302F",
"p.	c #535453",
"q.	c #545454",
"r.	c #EDEDED",
"s.	c #E4E4E6",
"t.	c #E5E3E1",
"u.	c #A0B3BF",
"v.	c #A0BCCE",
"w.	c #A1BBCA",
"x.	c #010305",
"y.	c #6B6B6B",
"z.	c #757575",
"A.	c #323230",
"B.	c #E4E4E9",
"C.	c #E4E4E0",
"D.	c #424B52",
"E.	c #A3BDD2",
"F.	c #A1BCCD",
"G.	c #738288",
"H.	c #010101",
"I.	c #000000",
"J.	c #303030",
"K.	c #373737",
"L.	c #030303",
"M.	c #E6E4E3",
"N.	c #9DB7C4",
"O.	c #9CB8CA",
"P.	c #A3BCD1",
"Q.	c #03090D",
"R.	c #070707",
"S.	c #E2E3E3",
"T.	c #1B1D1C",
"U.	c #131514",
"V.	c #565857",
"W.	c #434544",
"X.	c #080808",
"Y.	c #808080",
"Z.	c #E2E5E5",
"`.	c #E2E4E8",
" +	c #A8BDC9",
".+	c #96ACBD",
"++	c #A5BAC6",
"@+	c #A2B6C0",
"#+	c #A6BAC9",
"$+	c #000206",
"%+	c #5D5D5D",
"&+	c #E4E4E5",
"*+	c #E5E4E4",
"=+	c #E4E3E8",
"-+	c #E5E7E2",
";+	c #E4E6E5",
">+	c #E4E5E6",
",+	c #E5E5E6",
"'+	c #E1E6E5",
")+	c #A7B8C9",
"!+	c #A7BCC5",
"~+	c #9FBCCE",
"{+	c #A3B9CD",
"]+	c #040501",
"^+	c #000302",
"/+	c #050908",
"(+	c #000303",
"_+	c #1E2020",
":+	c #E4E5E7",
"<+	c #E5E4E3",
"[+	c #E3E3E1",
"}+	c #E6E8E5",
"|+	c #E4E4E3",
"1+	c #E6E5E3",
"2+	c #E7E4E5",
"3+	c #A6BCC6",
"4+	c #97AAB7",
"5+	c #010409",
"6+	c #A5BBC4",
"7+	c #85929B",
"8+	c #050F12",
"9+	c #DDE4E7",
"0+	c #C5C6C6",
"a+	c #3D4750",
"b+	c #E4E1DE",
"c+	c #C6CFD4",
"d+	c #E2E3E4",
"e+	c #5B5C5E",
"f+	c #818284",
"g+	c #E3E4E5",
"h+	c #DDE3E5",
"i+	c #A1B9C8",
"j+	c #000305",
"k+	c #474947",
"l+	c #020303",
"m+	c #111114",
"n+	c #1E1917",
"o+	c #95ABB5",
"p+	c #DAE6EB",
"q+	c #C4C8C8",
"r+	c #9CBBD0",
"s+	c #A6B3BC",
"t+	c #B1C5D0",
"u+	c #424A54",
"v+	c #E3E4E2",
"w+	c #AABBC7",
"x+	c #7C8C96",
"y+	c #353D44",
"z+	c #A7B9C7",
"A+	c #4E5056",
"B+	c #C9D7DE",
"C+	c #A4BACC",
"D+	c #181818",
"E+	c #080A09",
"F+	c #010304",
"G+	c #191B1A",
"H+	c #E1E5E9",
"I+	c #E7E9E8",
"J+	c #020405",
"K+	c #010204",
"L+	c #A3B8C4",
"M+	c #A9BBC9",
"N+	c #A2BCD0",
"O+	c #000507",
"P+	c #A8BECD",
"Q+	c #A5BCC7",
"R+	c #050608",
"S+	c #14161B",
"T+	c #A7BCC7",
"U+	c #000102",
"V+	c #8F9AA5",
"W+	c #A0BCCC",
"X+	c #9EBBCA",
"Y+	c #9EBBCD",
"Z+	c #7F9097",
"`+	c #212421",
" @	c #171917",
".@	c #020504",
"+@	c #3E403F",
"@@	c #1C1E1D",
"#@	c #404040",
"$@	c #030504",
"%@	c #E2E9EA",
"&@	c #1B1E20",
"*@	c #A4B4B9",
"=@	c #010106",
"-@	c #010404",
";@	c #010103",
">@	c #9AA8AF",
",@	c #9DBCD1",
"'@	c #000508",
")@	c #929396",
"!@	c #E5E3E2",
"~@	c #BABABC",
"{@	c #78868D",
"]@	c #2C3238",
"^@	c #AFC3CE",
"/@	c #A0BDCC",
"(@	c #3C4248",
"_@	c #040303",
":@	c #363634",
"<@	c #0A0A0A",
"[@	c #2D2F2E",
"}@	c #A6A8A7",
"|@	c #242726",
"1@	c #A5B7C5",
"2@	c #01040A",
"3@	c #21282D",
"4@	c #050503",
"5@	c #232D36",
"6@	c #A5AFB5",
"7@	c #E2E2E3",
"8@	c #DDE2E6",
"9@	c #000307",
"0@	c #2D3438",
"a@	c #3A3C3E",
"b@	c #020204",
"c@	c #000103",
"d@	c #3D3F3F",
"e@	c #53575B",
"f@	c #2F302E",
"g@	c #010100",
"h@	c #E0E3E4",
"i@	c #757472",
"j@	c #040605",
"k@	c #444645",
"l@	c #232524",
"m@	c #050401",
"n@	c #B4B5B6",
"o@	c #E5E4E2",
"p@	c #E4E3E2",
"q@	c #B7C3CD",
"r@	c #050200",
"s@	c #A7B5BC",
"t@	c #8C969D",
"u@	c #626B73",
"v@	c #343635",
"w@	c #1A1A17",
"x@	c #030505",
"y@	c #14181B",
"z@	c #040505",
"A@	c #252727",
"B@	c #ECEDEE",
"C@	c #E0E5EB",
"D@	c #A3BAC9",
"E@	c #0A0703",
"F@	c #A2ABB3",
"G@	c #94A0A7",
"H@	c #64696C",
"I@	c #000202",
"J@	c #020507",
"K@	c #BFCED5",
"L@	c #DBDDDF",
"M@	c #ACB9C1",
"N@	c #2C363B",
"O@	c #15161B",
"P@	c #A5B3BD",
"Q@	c #5F6670",
"R@	c #1B1E26",
"S@	c #40484D",
"T@	c #6A737A",
"U@	c #040609",
"V@	c #616C75",
"W@	c #3E4146",
"X@	c #3A3D3D",
"Y@	c #A1A6AE",
"Z@	c #687077",
"`@	c #444140",
" #	c #2C2C2C",
".#	c #44494C",
"+#	c #98AAB3",
"@#	c #575858",
"##	c #020306",
"$#	c #030305",
"%#	c #6A757A",
"&#	c #939DA7",
"*#	c #5D6164",
"=#	c #040706",
"-#	c #666A71",
";#	c #0B0E13",
">#	c #515459",
",#	c #050709",
"'#	c #343536",
". . . . . . . . . . . . . . . . . . . . . . . . . . . . . . . . . . . . . . . . ",
". . . . . . . . . . . . . . . . + @ # $ $ $ % & . . . . . . . . . . . . . . . . ",
". . . . . . . . . . . . . . * = - ; > , ' ) ! ~ { ] . . . . . . . . . . . . . . ",
". . . . . . . . . . . . . ^ / ( ( ( ( ( ( ( ( ( ( _ : . . . . . . . . . . . . . ",
". . . . . . . . . . . . . < ( ( ( ( ( ( ( ( ( ( ( [ } | . . . . . . . . . . . . ",
". . . . . . . . . . . . # ( 1 ( ( ( ( ( ( ( ( ( ( ; 2 3 . . . . . . . . . . . . ",
". . . . . . . . . . . . 4 ( ; ( ( ( ( 5 6 7 1 ( ( 8 9 0 a . . . . . . . . . . . ",
". . . . . . . . . . . b c d e 1 1 ( f g h i j 1 ( k l m n . . . . . . . . . . . ",
". . . . . . . . . . . o p q r s 1 ( t u v u w x ( ( y z A . . . . . . . . . . . ",
". . . . . . . . . . . B C D E s 1 ( F G H I J ~ ( K L M N . . . . . . . . . . . ",
". . . . . . . . . . . O P Q R S ( ( T U V W J f ( > X Y Z . . . . . . . . . . . ",
". . . . . . . . . . . ` -  ...1 ( ( ( +.@.@ - ; ( #.$.%.&.*.. . . . . . . . . . ",
". . . . . . . . . . . =.( ( -.( ( ( ( ;.~ 5 ( ( ( ; >.,.'.).. . . . . . . . . . ",
". . . . . . . . . . . !.;.~.{.].^.^.^./.(.) _.:.1 <.[.}.|.1.. . . . . . . . . . ",
". . . . . . . . . . . 2.3.4.5.6.7.8.9.0.a.b.c.d.( e.f.g.h.i.. . . . . . . . . . ",
". . . . . . . . . . . j.k.l.G G m.V V n.o.p.q.r.( s.t.u.v.w.x.. . . . . . . . . ",
". . . . . . . . . . . y.z.v A.u W W V V V q.d ; ( B.C.D.E.F.G.. . . . . . . . . ",
". . . . . . . . . . . H.( I.U J.K.m.V V V L.-.( ( M.~ !.N.O.P.Q.. . . . . . . . ",
". . . . . . . . . . . R.( S.T.U.3.V.W.X.Y.-.( ( ( Z.`. +.+++@+#+$+. . . . . . . ",
". . . . . . . . . . . . %+&+*+s.=+-+;+k >+6 ,+,+,+'+)+!+~+{+]+^+/+(+_+. . . . . ",
". . . . . . . . . . . . ] :+<+[+}+8 |+K 1+( K 1+1+2+3+4+5+6+7+ .. . . . . . . . ",
". . . . . . . . . . . . . 8+9+6 0+a+b+c+&+K d+e+f+g+h+i+j+k+l+# @ . . . . . . . ",
". . . . . . . . . . . m+. n+o+p+q+r+s+t+u+v+w+x+y+z+A+B+C+l+. . . . . . . . . . ",
"D+E+L.I.I.. . . . F+G+H+I+J+K+L+M+N+O+P+Q+R+S+T+U+V+W+X+Y+Z+`+. . . . . . . . . ",
" @.@# +@@@#@& H.$@%@&@*@=@-@  ;@>@,@'@P )@!@~@{@: . J+]@^@/@(@. . . . . . . . . ",
". # _@:@o <@R.% [@}@|@1@2@3@    4@5@6@-.7@6 8@9@0@. . . a@b@c@# . . . . . . . . ",
". d@e@f@h . . . . ~ g@h@i@j@k@W.l@m@).n@o@p@q@r@s@p . . . . . . . . . . . . . . ",
". t@u@v@w@. . . . P x@L.y@. . . i z@A@B@o@C@D@E@. P . . . . . . . . . . . . . . ",
". F@G@H@I@. . . . . . . . . . . . . J@K@L@M@N@T.. . . . . . . . . . . . . . . . ",
". O@P@Q@R@. . . . . . . . . . . . . . S@T@. . . . . . . . . . . . . . . . . . . ",
". U@V@W@X@. . . . . . . . . . . . . . . . . . . . . . . . . . . . . . . . . . . ",
". % Y@Z@`@ #. . . . . . . . . . . . . . . . . . . . . . . . . . . . . . . . . . ",
". . .#+#@###. . . . . . . . . . . . . . . . . . . . . . . . . . . . . . . . . . ",
". . $#%#&#*#. . . . . . . . . . . . . . . . . . . . . . . . . . . . . . . . . . ",
". . . =#-#;#I@. . . . . . . . . . . . . . . . . . . . . . . . . . . . . . . . . ",
". . . . ).>#,#] . . . . . . . . . . . . . . . . . . . . . . . . . . . . . . . . ",
". . . . . . b.'#^ . . . . . . . . . . . . . . . . . . . . . . . . . . . . . . . ",
". . . . . . . . $@] w . .   . . . . . . . . . . . . . . . . . . . . . . . . . . ",
". . . . . . . . . . . . . . . . . . . . . . . . . . . . . . . . . . . . . . . . ",
". . . . . . . . . . . . . . . . . . . . . . . . . . . . . . . . . . . . . . . . "};
