/* XPM */
static char * player_xpm[] = {
"40 40 358 2",
"  	c None",
". 	c #1E1E1E",
"+ 	c #040404",
"@ 	c #000201",
"# 	c #010302",
"$ 	c #020403",
"% 	c #040605",
"& 	c #EDEEEE",
"* 	c #E5E7E6",
"= 	c #E1E2E4",
"- 	c #E2E3E5",
"; 	c #E3E4E6",
"> 	c #E5E5E5",
", 	c #E7E7E7",
"' 	c #DEE0DF",
") 	c #E5E3E4",
"! 	c #060B11",
"~ 	c #CBD9DF",
"{ 	c #E5E4E4",
"] 	c #E4E4E4",
"^ 	c #010101",
"/ 	c #000301",
"( 	c #A4B8C7",
"_ 	c #D7DEE5",
": 	c #E5E5E4",
"< 	c #B1B3B2",
"[ 	c #9FB9CC",
"} 	c #C9CCD1",
"| 	c #E4E5E5",
"1 	c #E4E6E5",
"2 	c #E1E2E2",
"3 	c #E5E6E5",
"4 	c #E3E5E4",
"5 	c #050706",
"6 	c #A0B6C0",
"7 	c #A1BED1",
"8 	c #A8ABAF",
"9 	c #E3E3E3",
"0 	c #151716",
"a 	c #2D2E2D",
"b 	c #111211",
"c 	c #E9E9E9",
"d 	c #020201",
"e 	c #070807",
"f 	c #A3BBCA",
"g 	c #A0BED0",
"h 	c #919596",
"i 	c #E4E4E6",
"j 	c #ECEEED",
"k 	c #2D2D2B",
"l 	c #333331",
"m 	c #30302E",
"n 	c #E6E8E7",
"o 	c #111111",
"p 	c #2C2C2A",
"q 	c #B7BABA",
"r 	c #060607",
"s 	c #A1BBCB",
"t 	c #A3BED2",
"u 	c #909193",
"v 	c #C9CBCA",
"w 	c #555553",
"x 	c #2F2F2D",
"y 	c #E2E2E2",
"z 	c #020202",
"A 	c #494947",
"B 	c #A7ABAB",
"C 	c #3F3F3F",
"D 	c #010303",
"E 	c #A2BCC9",
"F 	c #A1BDD1",
"G 	c #A4A6A6",
"H 	c #EBEBEB",
"I 	c #4E4E4D",
"J 	c #585858",
"K 	c #505050",
"L 	c #050605",
"M 	c #555555",
"N 	c #2F2F2F",
"O 	c #F0F1F1",
"P 	c #070707",
"Q 	c #010408",
"R 	c #A1BCCB",
"S 	c #9FBBCC",
"T 	c #E1E1E1",
"U 	c #636463",
"V 	c #222423",
"W 	c #131313",
"X 	c #030303",
"Y 	c #212326",
"Z 	c #A1BDD0",
"` 	c #A0B8C8",
" .	c #E8E7E4",
"..	c #E8EAE9",
"+.	c #000000",
"@.	c #35332F",
"#.	c #ADC2D1",
"$.	c #9FBCCC",
"%.	c #9CADBB",
"&.	c #E5E2DE",
"*.	c #E4E4E5",
"=.	c #E3E4E4",
"-.	c #DFE2E2",
";.	c #DEE2E2",
">.	c #E3E3E5",
",.	c #DFE1E1",
"'.	c #DEE2E3",
").	c #DEE1E2",
"!.	c #DDE0E1",
"~.	c #E1E3E2",
"{.	c #DFE1E0",
"].	c #000100",
"^.	c #010403",
"/.	c #A0BBCC",
"(.	c #9DB9CB",
"_.	c #343E48",
":.	c #E4E3E0",
"<.	c #E3E3E4",
"[.	c #111312",
"}.	c #565859",
"|.	c #F5F6F7",
"1.	c #545557",
"2.	c #595B5A",
"3.	c #5A5A5A",
"4.	c #5A5A58",
"5.	c #2E2E2C",
"6.	c #2A2A28",
"7.	c #0D0F0E",
"8.	c #202221",
"9.	c #54636B",
"0.	c #A0BDCF",
"a.	c #9EBCCE",
"b.	c #AFAFB2",
"c.	c #E2E5E6",
"d.	c #E5E4E5",
"e.	c #565656",
"f.	c #030504",
"g.	c #545554",
"h.	c #575757",
"i.	c #434341",
"j.	c #31312F",
"k.	c #B6B7B7",
"l.	c #000400",
"m.	c #A3BCC9",
"n.	c #9DB7C8",
"o.	c #A1B8C7",
"p.	c #E6E6E7",
"q.	c #E2E6E3",
"r.	c #E5E4E6",
"s.	c #414141",
"t.	c #080A03",
"u.	c #A9B8CA",
"v.	c #A2BCCF",
"w.	c #9EBACB",
"x.	c #535D62",
"y.	c #E2E4E4",
"z.	c #E4E5E3",
"A.	c #B0B0B0",
"B.	c #484848",
"C.	c #2E2E2E",
"D.	c #313130",
"E.	c #2A2A2A",
"F.	c #D7D7D7",
"G.	c #F1F1F1",
"H.	c #4C4C4C",
"I.	c #94A2AB",
"J.	c #3A464A",
"K.	c #A3BED3",
"L.	c #A5B9C9",
"M.	c #B6C5CB",
"N.	c #E5E3E5",
"O.	c #E3E5E5",
"P.	c #EAEAEA",
"Q.	c #5B5D5C",
"R.	c #303231",
"S.	c #1F2120",
"T.	c #D4D6D5",
"U.	c #E8E8E8",
"V.	c #363636",
"W.	c #636766",
"X.	c #050503",
"Y.	c #52606D",
"Z.	c #A0BACD",
"`.	c #9DBCCB",
" +	c #BEC9D3",
".+	c #A8BAC9",
"++	c #E4E4E3",
"@+	c #E5E5E6",
"#+	c #E5E5E3",
"$+	c #E4E5E6",
"%+	c #E6E2DF",
"&+	c #E2E6E5",
"*+	c #E7E5E6",
"=+	c #E5E6E9",
"-+	c #E3E1E2",
";+	c #E2E3E2",
">+	c #010305",
",+	c #A7BDC9",
"'+	c #566369",
")+	c #010307",
"!+	c #9CBED2",
"~+	c #E5E8E8",
"{+	c #E6E5E3",
"]+	c #E0E4E3",
"^+	c #E6E3E4",
"/+	c #E5E4E2",
"(+	c #E4E5E7",
"_+	c #3E4241",
":+	c #010201",
"<+	c #070A0C",
"[+	c #9DB0BA",
"}+	c #9BADBA",
"|+	c #E7E5E0",
"1+	c #E9EAEC",
"2+	c #111214",
"3+	c #CDD1D4",
"4+	c #ACAFB2",
"5+	c #A3ADB6",
"6+	c #E1E4E5",
"7+	c #ADB8C0",
"8+	c #A3BCCB",
"9+	c #E4E8EA",
"0+	c #535E69",
"a+	c #A2BACF",
"b+	c #4C4E4D",
"c+	c #E3E8E6",
"d+	c #E3E6E8",
"e+	c #A7BAC7",
"f+	c #596369",
"g+	c #98B1C2",
"h+	c #A2B6C4",
"i+	c #E1E3E5",
"j+	c #A8BEC9",
"k+	c #000506",
"l+	c #010300",
"m+	c #9DBCCF",
"n+	c #9DBACA",
"o+	c #9FBCC9",
"p+	c #A4B9C8",
"q+	c #0A0C11",
"r+	c #00060B",
"s+	c #A2B5C2",
"t+	c #08060A",
"u+	c #818C90",
"v+	c #9FB9C9",
"w+	c #293336",
"x+	c #A1B2BB",
"y+	c #A0BACC",
"z+	c #A3BAC8",
"A+	c #060D13",
"B+	c #868787",
"C+	c #E2E6E7",
"D+	c #E7E8E8",
"E+	c #000304",
"F+	c #040508",
"G+	c #010202",
"H+	c #A6BECB",
"I+	c #A3BBC7",
"J+	c #83919C",
"K+	c #010103",
"L+	c #879298",
"M+	c #03080D",
"N+	c #E1E5E5",
"O+	c #EAE8E7",
"P+	c #151717",
"Q+	c #040505",
"R+	c #A9BECB",
"S+	c #A4BDCF",
"T+	c #090F14",
"U+	c #000204",
"V+	c #656E73",
"W+	c #080B0D",
"X+	c #B3BBBE",
"Y+	c #D3D6D7",
"Z+	c #595959",
"`+	c #030403",
" @	c #131514",
".@	c #020302",
"+@	c #050606",
"@@	c #000002",
"#@	c #040407",
"$@	c #000306",
"%@	c #A9BBC8",
"&@	c #727B81",
"*@	c #7D8182",
"=@	c #A7B6C0",
"-@	c #000205",
";@	c #A9B7C2",
">@	c #99A6AF",
",@	c #374349",
"'@	c #121413",
")@	c #0E0E0E",
"!@	c #3B3A38",
"~@	c #5B676C",
"{@	c #A7BDCE",
"]@	c #E4E3E1",
"^@	c #E3E3E2",
"/@	c #131619",
"(@	c #030200",
"_@	c #060605",
":@	c #333534",
"<@	c #444645",
"[@	c #E7E9E8",
"}@	c #313232",
"|@	c #EFEFED",
"1@	c #EEF0EF",
"2@	c #3D3F3E",
"3@	c #3C3E3C",
"4@	c #555757",
"5@	c #5B6066",
"6@	c #060807",
"7@	c #818587",
"8@	c #1D2B31",
"9@	c #C6D0D8",
"0@	c #E2E3E4",
"a@	c #090C0D",
"b@	c #040606",
"c@	c #050505",
"d@	c #333735",
"e@	c #060909",
"f@	c #000303",
"g@	c #262625",
"h@	c #494E51",
"i@	c #616E79",
"j@	c #000407",
"k@	c #010100",
"l@	c #A9BECA",
"m@	c #E5E9EC",
"n@	c #D8E0E5",
"o@	c #687075",
"p@	c #3F4343",
"q@	c #62696E",
"r@	c #8E9CA5",
"s@	c #040910",
"t@	c #686C75",
"u@	c #98A2AC",
"v@	c #8697A1",
"w@	c #030404",
"x@	c #4C5052",
"y@	c #5D646C",
"z@	c #A6B4BE",
"A@	c #040402",
"B@	c #43484A",
"C@	c #666C76",
"D@	c #3C4346",
"E@	c #2F3336",
"F@	c #A7B2B6",
"G@	c #A0AEB8",
"H@	c #000203",
"I@	c #585D63",
"J@	c #85929A",
"K@	c #070A0E",
"L@	c #63686A",
"M@	c #656C74",
"N@	c #64676C",
"O@	c #03060C",
"P@	c #040507",
"Q@	c #252626",
". . . . . . . . . . . . . . . . . . . . . . . . . . . . . . . . . . . . . . . . ",
". . . . . . . . . . . . . . . . + @ # $ % # $ . . . . . . . . . . . . . . . . . ",
". . . . . . . . . . . . . . . & * = - ; > > , ' @ . . . . . . . . . . . . . . . ",
". . . . . . . . . . . . . . ) > > > > > > > > > > . . . . . . . . . . . . . . . ",
". . . . . . . . . . . . ! ~ { > > > > > > > > > ] ] ^ . . . . . . . . . . . . . ",
". . . . . . . . . . . / ( _ : > > > > > > > > > > ] < . . . . . . . . . . . . . ",
". . . . . . . . . . . . [ } | > ] 1 2 3 ] > > > ] > 4 5 . . . . . . . . . . . . ",
". . . . . . . . . . . 6 7 8 | > 9 0 a b > > > > c d e @ . . . . . . . . . . . . ",
". . . . . . . . . . . f g h i > j k l m # n > ] o m p q . . . . . . . . . . . . ",
". . . . . . . . . . r s t u i > v w w x 5 1 > y z A l B C . . . . . . . . . . . ",
". . . . . . . . . . D E F G > > H I J K L ] > y o M N O P . . . . . . . . . . . ",
". . . . . . . . . . Q R S T ] > , U V @ H ] > ] H W X 9 z . . . . . . . . . . . ",
". . . . . . . . . . Y Z `  .| > > * ..* > > > > ] > T > +.. . . . . . . . . . . ",
". . . . . . . . . @.#.$.%.&.*.=.-.;.>.,.'.'.'.).).!.~.{.].. . . . . . . . . . . ",
". . . . . . . . . ^./.(._.:.<.=.[.}.|.1.2.3.M 4.5.6.7.8.@ . . . . . . . . . . . ",
". . . . . . . . . 9.0.a.b.c.d.> P e.f.g.h.h.h.i.j.5.$ k.].. . . . . . . . . . . ",
". . . . . . . . l.m.n.o.p.q.r.> , s.M h.h.h.e.x x x W y + . . . . . . . . . . . ",
". . . . . . . t.u.v.w.x.y.z.) > ] A.B.h.h.h.h.C.D.E.F.G.H.. . . . . . . . . . . ",
". . . . . . . I.f J.K.L.M.N.O.> > 9 P.X V Q.R.S.@ T.U.V.. . . . . . . . . . . . ",
". . . . . @ W.# X.Y.Z.`. +.+++@+@+#+$+$+%+&+*+=+-+> ;+^ . . . . . . . . . . . . ",
". . . . . . . . >+,+'+)+!+~+) {+{+$+#+{+]+^+4 4 /+(+_+. . . . . . . . . . . . . ",
". . . . . . . f.:+<+. [+}+|+1+2+- ; /+3+>.4+5+> 6+7+f.. . . . . . . . . . . . . ",
". . . . . . . . . . . 8+9+0+a+b+s c+d+e+f+g+h+i+j+k+  . . . . . . . . . . . . . ",
". . . . . . . . . l+m+n+o+p+q+r+s+t+u+v+w+x+y+z+A+  B+C+D+E+F+. . . . ^ z + . . ",
". . . . . . . . G+H+I+J+K+.   L+M+N+O+P+Q+R+S+T+    U+V+W+X+Y+. ^ . Z+`+ @# . . ",
". . . . . . . .@+@@@#@. . . $@%@&@| | y *@=@-@      ;@>@,@'@# 5 ^ ^ )@f.!@.@:+. ",
". . . . . . . . . . . . . . . ~@{@9 ]@^@/@(@_@:@<@. [@}@|@1@2@. . . z 3@4@5@G+. ",
". . . . . . . . . . . . . 6@. 7@8@9@0@y a@b@c@d@. . e@f@. . . . . . . g@h@i@j@. ",
". . . . . . . . . . . . . . . k@-@l@m@n@o@. . . . . . . . . . . . . . p@q@r@$@. ",
". . . . . . . . . . . . . . . . . . . s@U+. . . . . . . . . . . . . . t@u@v@w@. ",
". . . . . . . . . . . . . . . . . . . . . . . . . . . . . . . . . . # x@y@z@. . ",
". . . . . . . . . . . . . . . . . . . . . . . . . . . . . . . . . . A@B@C@D@. . ",
". . . . . . . . . . . . . . . . . . . . . . . . . . . . . . . . . . E@F@G@k@. . ",
". . . . . . . . . . . . . . . . . . . . . . . . . . . . . . . . . H@I@J@K@. . . ",
". . . . . . . . . . . . . . . . . . . . . . . . . . . . . . . . . L@M@. . . . . ",
". . . . . . . . . . . . . . . . . . . . . . . . . . . . . . . . . N@O@. . . . . ",
". . . . . . . . . . . . . . . . . . . . . . . . . . . . . . c@c@. P@. . . . . . ",
". . . . . . . . . . . . . . . . . . . . . . . . . . . . . # % Q@. . . . . . . . ",
". . . . . . . . . . . . . . . . . . . . . . . . . . . . . . . . . . . . . . . . ",
". . . . . . . . . . . . . . . . . . . . . . . . . . . . . . . . . . . . . . . . "};
