/* XPM */
static char * wall_xpm[] = {
"35 35 30 1",
" 	c #1E1E1E",
".	c #3B3B3B",
"+	c #616161",
"@	c #868686",
"#	c #959595",
"$	c #7F7F7F",
"%	c #686868",
"&	c #2C2C2C",
"*	c #252525",
"=	c #909090",
"-	c #6A6A6A",
";	c #494949",
">	c #3E3E3E",
",	c #4F4F4F",
"'	c #5F5F5F",
")	c #8A8A8A",
"!	c #606060",
"~	c #757575",
"{	c #434343",
"]	c #444444",
"^	c #6F6F6F",
"/	c #5E5E5E",
"(	c #696969",
"_	c #4E4E4E",
":	c #484848",
"<	c #8F8F8F",
"[	c #2D2D2D",
"}	c #747474",
"|	c #808080",
"1	c #262626",
"    .+@#####################$%&    ",
"  *+=-;>>>>>>>>>>>>>>>>>>>>>,')!*  ",
" *$~{>>>>>>>>>>>>>>>>>>>>>>>>>]^$* ",
" +^>>>>>>>>>>>>>>>>>>>>>>>>>>>>>~! ",
"&){>>>>>>>>>>>>>>>>>>>>>>>>>>>>>]=.",
"%/>>>>>>>>>>>>>>>>>>>>>>>>>>>>>>>(+",
"$_>>>>>>>>>>>>>>>>>>>>>>>>>>>>>>>;@",
"#>>>>>>>>>>>>>>>>>>>>>>>>>>>>>>>>>#",
"#>>>>>>>>>>>>>>>>>>>>>>>>>>>>>>>>>#",
"#>>>>>>>>>>>>>>>>>>>>>>>>>>>>>>>>>#",
"#>>>>>>>>>>>>>>>>>>>>>>>>>>>>>>>>>#",
"#>>>>>>>>>>>>>>>>>>>>>>>>>>>>>>>>>#",
"#>>>>>>>>>>>>>>>>>>>>>>>>>>>>>>>>>#",
"#>>>>>>>>>>>>>>>>>>>>>>>>>>>>>>>>>#",
"#>>>>>>>>>>>>>>>>>>>>>>>>>>>>>>>>>#",
"#>>>>>>>>>>>>>>>>>>>>>>>>>>>>>>>>>#",
"#>>>>>>>>>>>>>>>>>>>>>>>>>>>>>>>>>#",
"#>>>>>>>>>>>>>>>>>>>>>>>>>>>>>>>>>#",
"#>>>>>>>>>>>>>>>>>>>>>>>>>>>>>>>>>#",
"#>>>>>>>>>>>>>>>>>>>>>>>>>>>>>>>>>#",
"#>>>>>>>>>>>>>>>>>>>>>>>>>>>>>>>>>#",
"#>>>>>>>>>>>>>>>>>>>>>>>>>>>>>>>>>#",
"#>>>>>>>>>>>>>>>>>>>>>>>>>>>>>>>>>#",
"#>>>>>>>>>>>>>>>>>>>>>>>>>>>>>>>>>#",
"#>>>>>>>>>>>>>>>>>>>>>>>>>>>>>>>>>#",
"#>>>>>>>>>>>>>>>>>>>>>>>>>>>>>>>>>#",
"#>>>>>>>>>>>>>>>>>>>>>>>>>>>>>>>>>#",
"#>>>>>>>>>>>>>>>>>>>>>>>>>>>>>>>>>#",
"@:>>>>>>>>>>>>>>>>>>>>>>>>>>>>>>>_$",
"+(>>>>>>>>>>>>>>>>>>>>>>>>>>>>>>>'%",
".<{>>>>>>>>>>>>>>>>>>>>>>>>>>>>>{)[",
" +}>>>>>>>>>>>>>>>>>>>>>>>>>>>>>^+ ",
" *$^{>>>>>>>>>>>>>>>>>>>>>>>>>{}|1 ",
"  *+)/_>>>>>>>>>>>>>>>>>>>>>:(=+1  ",
"    [%$#####################@+.    "};
